<svg width="62" height="62" viewBox="0 0 62 62" fill="none" xmlns="http://www.w3.org/2000/svg">
<path id="Arrow 2" d="M43.618 61.2058C44.2842 62.0869 45.5385 62.2611 46.4196 61.5949L60.7774 50.7389C61.6585 50.0727 61.8327 48.8184 61.1665 47.9374C60.5003 47.0563 59.246 46.8821 58.3649 47.5483L45.6024 57.1981L35.9526 44.4356C35.2865 43.5545 34.0322 43.3803 33.1511 44.0465C32.27 44.7127 32.0958 45.9669 32.762 46.848L43.618 61.2058ZM0.0801138 4.49559C12.8439 5.34642 21.8015 9.24913 28.1141 14.4985C34.4412 19.7599 38.248 26.4888 40.5051 33.1997C42.765 39.9191 43.4511 46.5647 43.5654 51.5532C43.6224 54.0417 43.5368 56.1028 43.4378 57.5345C43.3884 58.2501 43.3357 58.8073 43.296 59.181C43.2761 59.3678 43.2595 59.5086 43.2482 59.6003C43.2426 59.6461 43.2383 59.6796 43.2356 59.7005C43.2342 59.7109 43.2332 59.7181 43.2327 59.7221C43.2324 59.7242 43.2322 59.7254 43.2322 59.7257C43.2322 59.7259 43.2322 59.7256 43.2322 59.7257C43.2323 59.7252 43.2324 59.7245 45.2134 59.9996C47.1943 60.2747 47.1945 60.2736 47.1947 60.2722C47.1948 60.2715 47.195 60.27 47.1952 60.2685C47.1956 60.2656 47.1961 60.2619 47.1967 60.2574C47.1979 60.2483 47.1996 60.236 47.2016 60.2204C47.2057 60.1893 47.2113 60.1453 47.2183 60.0889C47.2322 59.976 47.2513 59.8132 47.2736 59.6036C47.3181 59.1846 47.3752 58.5782 47.4283 57.8104C47.5344 56.2753 47.6246 54.0903 47.5644 51.4616C47.4442 46.2158 46.724 39.1427 44.2964 31.9246C41.8659 24.6981 37.7039 17.2708 30.6716 11.423C23.6248 5.56306 13.8324 1.40343 0.34616 0.50445L0.0801138 4.49559Z" fill="#23A6F0"/>
</svg>
