<svg width="30" height="31" viewBox="0 0 30 31" fill="none" xmlns="http://www.w3.org/2000/svg">
<g id="logos:facebook" clip-path="url(#clip0_2879_7990)">
<path id="Vector" d="M28.3443 30.5001C29.2586 30.5001 30 29.7588 30 28.8444V2.15574C30 1.24121 29.2586 0.5 28.3443 0.5H1.65574C0.741094 0.5 0 1.24121 0 2.15574V28.8444C0 29.7588 0.741094 30.5001 1.65574 30.5001H28.3443Z" fill="#252B42"/>
<path id="Vector_2" d="M20.6993 30.5001V18.8824H24.5989L25.1828 14.3549H20.6993V11.4641C20.6993 10.1533 21.0634 9.25995 22.9432 9.25995L25.3407 9.2589V5.20948C24.9259 5.15429 23.5028 5.03101 21.8471 5.03101C18.3903 5.03101 16.0239 7.14097 16.0239 11.0159V14.3549H12.1143V18.8824H16.0239V30.5001H20.6993Z" fill="white"/>
</g>
<defs>
<clipPath id="clip0_2879_7990">
<rect width="30" height="30.0001" fill="white" transform="translate(0 0.5)"/>
</clipPath>
</defs>
</svg>
