<svg width="30" height="31" viewBox="0 0 30 31" fill="none" xmlns="http://www.w3.org/2000/svg">
<g id="ant-design:instagram-outlined" clip-path="url(#clip0_2879_7993)">
<path id="Vector" d="M14.9998 7.80875C10.7435 7.80875 7.30854 11.2437 7.30854 15.5C7.30854 19.7563 10.7435 23.1912 14.9998 23.1912C19.2561 23.1912 22.6911 19.7563 22.6911 15.5C22.6911 11.2437 19.2561 7.80875 14.9998 7.80875ZM14.9998 20.4987C12.2473 20.4987 10.001 18.2525 10.001 15.5C10.001 12.7475 12.2473 10.5012 14.9998 10.5012C17.7523 10.5012 19.9986 12.7475 19.9986 15.5C19.9986 18.2525 17.7523 20.4987 14.9998 20.4987ZM23.0061 5.70125C22.0123 5.70125 21.2098 6.50375 21.2098 7.4975C21.2098 8.49125 22.0123 9.29375 23.0061 9.29375C23.9998 9.29375 24.8023 8.495 24.8023 7.4975C24.8026 7.26153 24.7563 7.02782 24.6662 6.80975C24.576 6.59169 24.4437 6.39355 24.2769 6.2267C24.11 6.05984 23.9119 5.92754 23.6938 5.83738C23.4757 5.74721 23.242 5.70095 23.0061 5.70125ZM29.9923 15.5C29.9923 13.43 30.0111 11.3787 29.8948 9.3125C29.7786 6.9125 29.2311 4.7825 27.4761 3.0275C25.7173 1.26875 23.5911 0.724997 21.1911 0.608747C19.1211 0.492497 17.0698 0.511247 15.0035 0.511247C12.9335 0.511247 10.8823 0.492497 8.81604 0.608747C6.41604 0.724997 4.28604 1.2725 2.53104 3.0275C0.772288 4.78625 0.228537 6.9125 0.112287 9.3125C-0.00396278 11.3825 0.0147873 13.4337 0.0147873 15.5C0.0147873 17.5662 -0.00396278 19.6213 0.112287 21.6875C0.228537 24.0875 0.776038 26.2175 2.53104 27.9725C4.28979 29.7313 6.41604 30.275 8.81604 30.3913C10.886 30.5075 12.9373 30.4888 15.0035 30.4888C17.0735 30.4888 19.1248 30.5075 21.1911 30.3913C23.5911 30.275 25.7211 29.7275 27.4761 27.9725C29.2348 26.2137 29.7786 24.0875 29.8948 21.6875C30.0148 19.6213 29.9923 17.57 29.9923 15.5ZM26.6923 24.3425C26.4186 25.025 26.0886 25.535 25.5598 26.06C25.0311 26.5887 24.5248 26.9188 23.8423 27.1925C21.8698 27.9762 17.1861 27.8 14.9998 27.8C12.8135 27.8 8.12604 27.9763 6.15354 27.1963C5.47104 26.9225 4.96104 26.5925 4.43604 26.0638C3.90729 25.535 3.57729 25.0288 3.30354 24.3463C2.52354 22.37 2.69979 17.6862 2.69979 15.5C2.69979 13.3137 2.52354 8.62625 3.30354 6.65375C3.57729 5.97125 3.90729 5.46125 4.43604 4.93625C4.96479 4.41125 5.47104 4.0775 6.15354 3.80375C8.12604 3.02375 12.8135 3.2 14.9998 3.2C17.1861 3.2 21.8736 3.02375 23.8461 3.80375C24.5286 4.0775 25.0386 4.4075 25.5636 4.93625C26.0923 5.465 26.4223 5.97125 26.6961 6.65375C27.4761 8.62625 27.2998 13.3137 27.2998 15.5C27.2998 17.6862 27.4761 22.37 26.6923 24.3425Z" fill="#252B42"/>
</g>
<defs>
<clipPath id="clip0_2879_7993">
<rect width="30" height="30" fill="white" transform="translate(0 0.5)"/>
</clipPath>
</defs>
</svg>
