<svg width="30" height="31" viewBox="0 0 30 31" fill="none" xmlns="http://www.w3.org/2000/svg">
<g id="logos:linkedin-icon" clip-path="url(#clip0_2879_7995)">
<path id="Vector" d="M25.5782 25.9624H21.1504V19.0282C21.1504 17.3747 21.1209 15.2461 18.8475 15.2461C16.5414 15.2461 16.1885 17.0477 16.1885 18.9078V25.9619H11.7609V11.7024H16.0114V13.6512H16.071C16.4963 12.9238 17.111 12.3254 17.8496 11.9198C18.5881 11.5142 19.4229 11.3165 20.2649 11.3477C24.7526 11.3477 25.58 14.2996 25.58 18.1398L25.5782 25.9624ZM6.76477 9.75338C5.34567 9.75361 4.19504 8.60334 4.19481 7.18423C4.19458 5.76513 5.34473 4.61451 6.76384 4.61427C8.18294 4.61392 9.33356 5.76419 9.3338 7.1833C9.33392 7.86478 9.06333 8.5184 8.58155 9.00038C8.09977 9.48236 7.44625 9.75322 6.76477 9.75338ZM8.9787 25.9625H4.54629V11.7024H8.97858V25.9624L8.9787 25.9625ZM27.7856 0.502175H2.32139C1.11788 0.488634 0.130919 1.45272 0.116211 2.65622V28.2266C0.130452 29.4307 1.1173 30.3957 2.32127 30.3831H27.7856C28.9921 30.398 29.9828 29.433 29.9995 28.2266V2.65424C29.9823 1.4484 28.9915 0.484432 27.7856 0.50019" fill="#252B42"/>
</g>
<defs>
<clipPath id="clip0_2879_7995">
<rect width="30" height="29.8833" fill="white" transform="translate(0 0.5)"/>
</clipPath>
</defs>
</svg>
