<svg width="30" height="25" viewBox="0 0 30 25" fill="none" xmlns="http://www.w3.org/2000/svg">
<g id="logos:twitter" clip-path="url(#clip0_2879_7988)">
<path id="Vector" d="M30 3.48241C28.8766 3.98007 27.685 4.30674 26.4649 4.45155C27.7358 3.68983 28.7116 2.48362 29.1711 1.04643C27.963 1.76337 26.6412 2.26849 25.2628 2.53998C24.14 1.34385 22.5405 0.596313 20.7702 0.596313C17.3711 0.596313 14.6152 3.35209 14.6152 6.751C14.6152 7.23346 14.6696 7.70315 14.7745 8.15373C9.6593 7.89698 5.12414 5.4467 2.0884 1.72295C1.55871 2.63198 1.2552 3.68936 1.2552 4.81717C1.2552 6.95256 2.34188 8.83635 3.99328 9.94014C3.01588 9.90953 2.05998 9.64554 1.20539 9.17022C1.20504 9.196 1.20504 9.22178 1.20504 9.24768C1.20504 12.2297 3.3266 14.7174 6.14215 15.2828C5.2358 15.5293 4.28511 15.5654 3.3627 15.3883C4.14586 17.8335 6.41895 19.6129 9.11215 19.6627C7.0057 21.3134 4.35176 22.2974 1.46824 22.2974C0.971367 22.2974 0.481523 22.2683 0 22.2114C2.72379 23.9578 5.95898 24.9767 9.43477 24.9767C20.7559 24.9767 26.9466 15.5981 26.9466 7.46479C26.9466 7.19784 26.9407 6.93241 26.9288 6.6685C28.1337 5.79743 29.1737 4.71852 30 3.48241Z" fill="#252B42"/>
</g>
<defs>
<clipPath id="clip0_2879_7988">
<rect width="30" height="24.4922" fill="white" transform="translate(0 0.5)"/>
</clipPath>
</defs>
</svg>
