<svg width="152" height="92" viewBox="0 0 152 92" fill="none" xmlns="http://www.w3.org/2000/svg">
<g id="fa-brands:aws" clip-path="url(#clip0_2992_8751)">
<path id="Vector" d="M42.7337 33.3703C42.5621 38.7687 45.2598 41.1593 45.3266 42.6775C45.2948 42.9865 45.1895 43.2835 45.0195 43.5434C44.8495 43.8034 44.6198 44.0189 44.3495 44.1719L41.299 46.3075C40.9042 46.5843 40.4389 46.743 39.9573 46.7651C39.8548 46.7603 38.0054 47.2013 35.0765 40.6612C33.2896 42.892 31.016 44.6843 28.4297 45.9009C25.8435 47.1175 23.0131 47.7262 20.1554 47.6803C16.2756 47.8925 5.76105 45.4781 6.30203 34.2831C5.92311 25.1594 14.4191 19.4916 23.2059 19.9707C24.898 19.9755 28.3536 20.0589 34.4045 21.4651V17.7422C35.0455 11.4357 30.9012 6.54252 23.7254 7.27661C23.1535 7.27899 19.1021 7.15744 12.801 9.68625C11.0469 10.4918 10.8229 10.3584 10.239 10.3584C8.47311 10.3584 9.19998 5.23879 9.53839 4.5905C10.78 3.06511 18.0845 0.216922 25.2531 0.25744C30.0462 -0.166505 34.8137 1.31294 38.525 4.37599C40.0336 6.06365 41.1846 8.0396 41.9083 10.1845C42.6321 12.3294 42.9137 14.5988 42.736 16.8556L42.7337 33.3703ZM22.1382 41.0902C29.8669 40.9782 33.139 36.3305 33.8849 33.8279C34.4712 31.4326 34.3735 29.9167 34.3735 27.2973C32.0689 26.7444 28.7516 26.1414 24.9456 26.1366C21.3351 25.8649 14.7409 27.4785 14.9982 33.8255C14.7027 37.8273 17.6483 41.3095 22.1382 41.0902ZM62.8715 46.584C60.9983 46.7556 60.1261 45.4256 59.8496 44.1124L47.9814 4.86936C47.7503 4.20677 47.5977 3.52272 47.5238 2.82438C47.4801 2.53647 47.5524 2.24296 47.7249 2.00833C47.8974 1.7737 48.1559 1.61716 48.4438 1.57309C48.501 1.56355 47.9361 1.57309 53.7463 1.57309C55.8388 1.36335 56.5203 3.01029 56.7372 4.04469L65.2499 37.6104L73.1525 4.04469C73.2788 3.27723 73.8532 1.40625 76.203 1.60407H80.2925C80.8097 1.56117 82.9402 1.4849 83.3144 4.07568L91.279 38.0704L100.066 4.07568C100.18 3.55609 100.714 1.36573 103.088 1.60407H107.787C107.99 1.57309 109.253 1.41101 109.038 3.64905C108.936 4.08998 109.851 1.10832 96.4672 44.1433C96.1931 45.4566 95.3185 46.7866 93.4453 46.6149H88.9911C86.3839 46.889 86.0098 44.3126 85.9693 44.0528L78.0667 11.3689L70.2546 44.0194C70.2165 44.2792 69.8423 46.8557 67.2327 46.5816H62.8715V46.584ZM128.047 47.9258C126.645 47.9282 119.963 47.8543 114.377 44.9966C113.82 44.761 113.346 44.3654 113.015 43.86C112.684 43.3547 112.51 42.7623 112.515 42.158V39.5958C112.515 37.5818 113.993 37.9512 114.62 38.1919C117.013 39.1596 118.547 39.8937 121.486 40.48C130.22 42.2747 134.062 39.9318 135.003 39.4123C138.137 37.5508 138.385 33.2916 136.254 31.0822C133.757 28.9872 132.565 28.9085 123.592 26.077C122.487 25.7696 113.178 22.8332 113.157 13.5974C113.011 6.86666 119.126 0.207388 129.724 0.262206C132.744 0.259823 140.789 1.24656 142.968 3.98511C143.289 4.48324 143.449 5.06956 143.425 5.66304V8.07267C143.425 9.13091 143.039 9.66003 142.265 9.66003C140.427 9.45506 137.167 6.99775 130.549 7.09785C128.907 7.01205 121.042 7.31475 121.395 13.0493C121.293 17.5682 127.737 19.2628 128.473 19.4583C137.162 22.0729 140.067 22.5067 143.516 26.5084C147.601 31.8115 145.399 38.0203 144.553 39.7221C140.005 48.6575 128.247 47.9306 128.047 47.9258ZM137.627 72.9184C120.938 85.2454 96.7102 91.807 76.0243 91.807C48.1126 91.9911 21.1416 81.7268 0.413202 63.0319C-1.14301 61.6281 0.229698 59.7047 2.12194 60.7748C25.1159 73.9293 51.1499 80.8411 77.6401 80.8242C97.4222 80.7181 116.988 76.7046 135.215 69.0143C138.023 67.8226 140.403 70.8734 137.627 72.9184ZM144.584 64.984C142.448 62.2383 130.456 63.7017 125.087 64.3428C123.469 64.5264 123.194 63.1225 124.66 62.0857C134.21 55.3716 149.893 57.2951 151.695 59.5522C153.494 61.8092 151.206 77.5255 142.267 85.0333C140.894 86.194 139.581 85.5815 140.191 84.0561C142.203 78.9913 146.719 67.7321 144.584 64.984Z" fill="#737373"/>
</g>
<defs>
<clipPath id="clip0_2992_8751">
<rect width="153" height="92" fill="white" transform="translate(-0.5)"/>
</clipPath>
</defs>
</svg>
