<svg width="150" height="50" viewBox="0 0 150 50" fill="none" xmlns="http://www.w3.org/2000/svg">
<g id="fa-brands:hooli" clip-path="url(#clip0_2992_8739)">
<path id="Vector" d="M34.141 46.9484L43.0577 47.1361C39.9846 46.0563 37.0046 44.7418 34.141 43.1925V46.9484ZM47.5743 45.7042V46.9484L43.0577 47.1361C51.5554 50.0704 59.3313 50.4695 65.105 48.8263C60.4721 48.8732 54.4422 48.216 47.5743 45.7042ZM142.771 18.662C146.473 18.662 149.5 15.6338 149.5 11.8779C149.5 8.12206 146.496 6.12675 142.771 6.12675C139.07 6.12675 136.043 8.14553 136.043 11.8779C136.043 15.6103 139.046 18.662 142.771 18.662ZM136.02 46.9484H149.5V21.0094H136.02V46.9484ZM118.861 46.9484H132.341V1.10328L118.861 7.51173V46.9484ZM111.644 18.9202C107.407 14.6479 99.9105 14.9061 99.9105 14.9061C99.9105 14.9061 92.3907 14.6479 88.1768 18.9202C83.9396 23.1925 84.2655 26.8779 84.2655 31.2676C84.2655 35.6573 83.9396 39.3192 88.1768 43.5915C92.4139 47.8638 99.9105 47.6056 99.9105 47.6056C99.9105 47.6056 107.43 47.8638 111.644 43.5915C115.881 39.3192 115.556 35.6573 115.556 31.2676C115.532 26.8545 115.858 23.169 111.644 18.9202ZM102.378 35.7981C102.378 36.6432 101.959 38.7324 99.8872 38.7324C97.8152 38.7324 97.3961 36.6432 97.3961 35.7981V26.3146C97.3961 24.2723 99.0957 23.7559 99.8872 23.7559C100.679 23.7559 102.378 24.2488 102.378 26.3146V35.7981ZM77.6536 18.9202C73.4164 14.6479 65.9199 14.9061 65.9199 14.9061C65.9199 14.9061 58.4233 14.6479 54.1861 18.9202C53.7438 19.3662 53.3247 19.8357 52.9522 20.3286C44.0588 13.3803 36.0733 9.41314 29.1821 5.98591V1.12675L23.9438 3.61501C11.2788 -1.57278 3.22349 -0.657287 1.29114 3.63849C1.29114 3.63849 -4.50589 11.338 15.679 29.6479V46.9484H29.1588V40.2347C27.6455 39.2488 26.1322 38.1925 24.6422 37.0422C21.1966 34.4131 18.2632 31.9718 15.7022 29.6714V22.3944C18.7521 25.8451 22.803 29.7653 28.1344 34.2019L29.1821 35.0469V28.0516C29.1821 26.4319 29.5779 23.7793 31.6965 23.7793C33.815 23.7793 34.1643 25.3991 34.1643 27.3005V38.7324C38.3549 41.5962 42.8482 43.9202 47.5975 45.6807V23.6385C47.5975 19.2488 44.4779 14.8591 38.1454 14.8591C34.4669 14.8357 31.0446 16.784 29.1821 20V7.25351C38.9369 12.1596 48.715 18.169 52.44 20.939C50.0654 24.3662 50.2749 27.5352 50.2749 31.1972C50.2749 35.5868 49.9489 39.2488 54.1861 43.5211C58.4233 47.7934 65.9199 47.5352 65.9199 47.5352C65.9199 47.5352 73.4397 47.7934 77.6536 43.5211C81.8908 39.2488 81.5416 35.5868 81.5416 31.1972C81.5416 26.8545 81.8908 23.169 77.6536 18.9202ZM15.679 7.51173V22.3709C4.34099 9.57746 6.62255 4.53051 7.48395 3.80281C10.6269 1.12675 16.2144 1.92487 22.4771 4.29577L15.679 7.51173ZM68.411 35.7981C68.411 36.6432 67.9919 38.7324 65.9199 38.7324C63.8479 38.7324 63.4288 36.6432 63.4288 35.7981V26.3146C63.4288 24.2723 65.1283 23.7559 65.9199 23.7559C66.7114 23.7559 68.411 24.2488 68.411 26.3146V35.7981Z" fill="#737373"/>
</g>
<defs>
<clipPath id="clip0_2992_8739">
<rect width="149" height="50" fill="white" transform="translate(0.5)"/>
</clipPath>
</defs>
</svg>
