<svg width="150" height="142" viewBox="0 0 150 142" fill="none" xmlns="http://www.w3.org/2000/svg">
<g id="fa-brands:reddit-alien" clip-path="url(#clip0_2992_8754)">
<path id="Vector" d="M132.691 54.5545C127.996 54.5545 123.864 56.5153 120.828 59.583C109.653 51.7714 94.596 46.7429 77.9118 46.2053L86.5826 6.73626L114.191 12.9982C114.191 19.8294 119.701 25.3955 126.462 25.3955C133.349 25.3955 138.889 19.6712 138.889 12.84C138.889 6.00887 133.38 0.284592 126.462 0.284592C121.641 0.284592 117.478 3.22579 115.412 7.24227L84.9236 0.411095C83.3897 -4.08888e-05 81.8872 1.10686 81.4803 2.65653L71.9643 46.1737C55.4053 46.8694 40.5053 51.8979 29.299 59.7095C26.2626 56.5153 21.9742 54.5545 17.2788 54.5545C-0.125376 54.5545 -5.82243 78.1474 10.1105 86.212C9.5471 88.7104 9.29668 91.367 9.29668 94.0235C9.29668 120.526 38.8463 142 75.1259 142C111.562 142 141.112 120.526 141.112 94.0235C141.112 91.367 140.83 88.5839 140.141 86.0855C155.761 77.9893 150.002 54.5545 132.691 54.5545ZM35.3717 87.8881C35.3717 80.9305 40.8809 75.3327 47.7988 75.3327C54.5601 75.3327 60.0694 80.8988 60.0694 87.8881C60.0694 94.7193 54.5601 100.285 47.7988 100.285C40.9122 100.317 35.3717 94.7193 35.3717 87.8881ZM102.453 117.458C91.0589 128.97 58.9112 128.97 47.5171 117.458C46.265 116.351 46.265 114.391 47.5171 113.126C48.6126 112.019 50.5534 112.019 51.649 113.126C60.3511 122.139 89.212 122.297 98.2897 113.126C99.3853 112.019 101.326 112.019 102.422 113.126C103.705 114.391 103.705 116.351 102.453 117.458ZM102.203 100.317C95.4412 100.317 89.932 94.7509 89.932 87.9198C89.932 80.9621 95.4412 75.3643 102.203 75.3643C109.089 75.3643 114.63 80.9305 114.63 87.9198C114.598 94.7193 109.089 100.317 102.203 100.317Z" fill="#737373"/>
</g>
<defs>
<clipPath id="clip0_2992_8754">
<rect width="149" height="142" fill="white" transform="translate(0.5)"/>
</clipPath>
</defs>
</svg>
