<svg width="150" height="60" viewBox="0 0 150 60" fill="none" xmlns="http://www.w3.org/2000/svg">
<g id="fa-brands:stripe" clip-path="url(#clip0_2992_8748)">
<path id="Vector" d="M38.9162 4.70455L28.8354 6.79545L28.7888 39.1591C28.7888 45.1364 33.3985 49 39.5215 49C42.9205 49 45.4116 48.3864 46.7852 47.6591V39.9773C45.4582 40.5 38.9394 42.3636 38.9394 36.4091V22.0455H46.7852V13.4545H38.9394L38.9162 4.70455ZM59.6598 16.4318L59.0312 13.4545H50.0912V48.2727H60.4048V24.8409C62.8493 21.7045 66.9701 22.3182 68.2971 22.7273V13.4545C66.9002 12.9773 62.081 12.0909 59.6598 16.4318ZM81.1483 0L70.7649 2.15909V10.3864L81.1483 8.22727V0ZM10.9554 23.7045C10.9554 22.1364 12.3057 21.5227 14.4709 21.5C17.6138 21.5 21.6182 22.4318 24.7612 24.0909V14.5909C21.3388 13.2727 17.9165 12.75 14.4941 12.75C6.11289 12.75 0.525391 17.0227 0.525391 24.1591C0.525391 35.3409 16.2402 33.5227 16.2402 38.3409C16.2402 40.2046 14.5873 40.8182 12.2824 40.8182C8.86008 40.8182 4.43664 39.4318 0.967734 37.5909V46.6818C4.80914 48.2955 8.69711 48.9773 12.2591 48.9773C20.8499 48.9773 26.7634 45.3864 26.7634 38.1136C26.7634 26.0909 10.9554 28.25 10.9554 23.7045ZM149.502 31.2727C149.502 20.9318 144.38 12.7727 134.556 12.7727C124.731 12.7727 118.748 20.9318 118.748 31.2045C118.748 43.3636 125.802 48.9773 135.859 48.9773C140.795 48.9773 144.497 47.8864 147.314 46.3636V38.7727C144.497 40.1591 141.261 41 137.163 41C133.135 41 129.597 39.6136 129.131 34.8864H149.362C149.409 34.3636 149.502 32.25 149.502 31.2727ZM129.038 27.4545C129.038 22.9091 131.901 21 134.486 21C137.023 21 139.724 22.9091 139.724 27.4545H129.038ZM102.753 12.7727C98.7024 12.7727 96.0949 14.6364 94.6515 15.9318L94.116 13.4318H85.013V59.9773L95.3499 57.8409L95.3732 46.4318C96.8632 47.5 99.0749 48.9773 102.684 48.9773C110.087 48.9773 116.839 43.7045 116.839 30.8864C116.862 19.1591 110.017 12.7727 102.753 12.7727ZM100.286 40.6136C97.8643 40.6136 96.4209 39.75 95.4198 38.7045L95.3499 23.7045C96.4208 22.5455 97.9109 21.7045 100.286 21.7045C104.057 21.7045 106.665 25.8409 106.665 31.1136C106.688 36.5455 104.127 40.6136 100.286 40.6136ZM70.7882 48.2727H81.1716V13.4545H70.7882V48.2727Z" fill="#737373"/>
</g>
<defs>
<clipPath id="clip0_2992_8748">
<rect width="149" height="60" fill="white" transform="translate(0.5)"/>
</clipPath>
</defs>
</svg>
