<svg width="31" height="30" viewBox="0 0 31 30" fill="none" xmlns="http://www.w3.org/2000/svg">
<g id="logos:linkedin-icon" clip-path="url(#clip0_2874_4688)">
<path id="Vector" d="M26.0786 25.4624H21.6509V18.5282C21.6509 16.8747 21.6214 14.7461 19.348 14.7461C17.0419 14.7461 16.689 16.5477 16.689 18.4078V25.4619H12.2614V11.2024H16.5119V13.1512H16.5714C16.9968 12.4238 17.6115 11.8254 18.3501 11.4198C19.0886 11.0142 19.9233 10.8165 20.7654 10.8477C25.2531 10.8477 26.0805 13.7996 26.0805 17.6398L26.0786 25.4624ZM7.26526 9.25338C5.84615 9.25361 4.69553 8.10334 4.6953 6.68423C4.69507 5.26513 5.84522 4.11451 7.26433 4.11427C8.68343 4.11392 9.83405 5.26419 9.83429 6.6833C9.83441 7.36478 9.56382 8.0184 9.08204 8.50038C8.60025 8.98236 7.94674 9.25322 7.26526 9.25338ZM9.47919 25.4625H5.04678V11.2024H9.47907V25.4624L9.47919 25.4625ZM28.286 0.00217493H2.82187C1.61837 -0.0113659 0.631407 0.952719 0.616699 2.15622V27.7266C0.63094 28.9307 1.61779 29.8957 2.82176 29.8831H28.286C29.4926 29.898 30.4833 28.933 30.5 27.7266V2.15424C30.4828 0.9484 29.492 -0.0155683 28.286 0.000190493" fill="#0A66C2"/>
</g>
<defs>
<clipPath id="clip0_2874_4688">
<rect width="30" height="29.8833" fill="white" transform="translate(0.5)"/>
</clipPath>
</defs>
</svg>
