<svg width="23" height="23" viewBox="0 0 23 23" fill="none" xmlns="http://www.w3.org/2000/svg">
<g id="icn search .icn-xs" clip-path="url(#clip0_2992_8603)">
<path id="vector" fill-rule="evenodd" clip-rule="evenodd" d="M16.3943 14.9643L22.4411 21.0111C22.6536 21.2237 22.773 21.5122 22.7729 21.8128C22.7728 22.1135 22.6532 22.4018 22.4405 22.6144C22.2279 22.8269 21.9394 22.9462 21.6388 22.9461C21.3381 22.946 21.0498 22.8265 20.8372 22.6138L14.7904 16.567C12.9828 17.9671 10.7097 18.6259 8.43354 18.4095C6.15739 18.1931 4.04916 17.1178 2.53774 15.4022C1.02632 13.6865 0.225234 11.4596 0.29746 9.17431C0.369687 6.88903 1.30979 4.7171 2.92654 3.10036C4.54328 1.48362 6.7152 0.543515 9.00048 0.471289C11.2858 0.399062 13.5127 1.20014 15.2283 2.71157C16.9439 4.22299 18.0193 6.33122 18.2357 8.60737C18.4521 10.8835 17.7932 13.1566 16.3932 14.9643H16.3943ZM9.28535 16.2017C11.0739 16.2017 12.7892 15.4912 14.0538 14.2265C15.3185 12.9619 16.029 11.2466 16.029 9.45805C16.029 7.66952 15.3185 5.95425 14.0538 4.68957C12.7892 3.42489 11.0739 2.7144 9.28535 2.7144C7.49682 2.7144 5.78154 3.42489 4.51686 4.68957C3.25218 5.95425 2.54169 7.66952 2.54169 9.45805C2.54169 11.2466 3.25218 12.9619 4.51686 14.2265C5.78154 15.4912 7.49682 16.2017 9.28535 16.2017Z" fill="#737373"/>
</g>
<defs>
<clipPath id="clip0_2992_8603">
<rect width="22.4799" height="22.4796" fill="white" transform="translate(0.292969 0.466553)"/>
</clipPath>
</defs>
</svg>
