<svg width="23" height="22" viewBox="0 0 23 22" fill="none" xmlns="http://www.w3.org/2000/svg">
<g id="icn shopping-cart .icn-xs" clip-path="url(#clip0_2992_8605)">
<path id="Vector" d="M7.74475 21.3845C8.57244 21.3845 9.24341 20.7136 9.24341 19.8859C9.24341 19.0582 8.57244 18.3872 7.74475 18.3872C6.91707 18.3872 6.24609 19.0582 6.24609 19.8859C6.24609 20.7136 6.91707 21.3845 7.74475 21.3845Z" fill="#737373"/>
<path id="Vector_2" d="M18.235 21.3845C19.0627 21.3845 19.7336 20.7136 19.7336 19.8859C19.7336 19.0582 19.0627 18.3872 18.235 18.3872C17.4073 18.3872 16.7363 19.0582 16.7363 19.8859C16.7363 20.7136 17.4073 21.3845 18.235 21.3845Z" fill="#737373"/>
<path id="Vector_3" d="M21.2332 4.15H4.61305L3.9986 1.00281C3.96357 0.831011 3.8694 0.676933 3.73249 0.5674C3.59557 0.457867 3.42458 0.399815 3.24927 0.403351H0.251953V1.90201H2.63482L5.49726 16.2891C5.5323 16.461 5.62647 16.615 5.76338 16.7246C5.9003 16.8341 6.07129 16.8921 6.24659 16.8886H19.7345V15.39H6.86104L6.24659 12.3926H19.7345C19.9078 12.3969 20.0771 12.3409 20.2137 12.2344C20.3503 12.1278 20.4458 11.9772 20.4839 11.8082L21.9825 5.06418C22.0076 4.953 22.0071 4.83756 21.9808 4.72663C21.9546 4.61571 21.9034 4.51224 21.8311 4.42408C21.7589 4.33593 21.6675 4.26542 21.5638 4.21793C21.4602 4.17043 21.3471 4.1472 21.2332 4.15ZM19.1351 10.894H5.96185L4.91279 5.64866H20.2965L19.1351 10.894Z" fill="#737373"/>
</g>
<defs>
<clipPath id="clip0_2992_8605">
<rect width="22.4799" height="20.9814" fill="white" transform="translate(0.251953 0.403198)"/>
</clipPath>
</defs>
</svg>
